<?xml version="1.0" encoding="utf-8"?>
<!-- Generator: Adobe Illustrator 26.0.0, SVG Export Plug-In . SVG Version: 6.00 Build 0)  -->
<svg version="1.1" id="_x2018_ëîé_x5F_1" xmlns="http://www.w3.org/2000/svg" xmlns:xlink="http://www.w3.org/1999/xlink"
	 x="0px" y="0px" viewBox="0 0 1329 1515.9" style="enable-background:new 0 0 1329 1515.9;" xml:space="preserve">
<style type="text/css">
	.st0{fill:#FFFFFF;}
	.st1{fill:#9F0013;}
</style>
<g>
	<g>
		<g>
			<g>
				<path class="st0" d="M862.2,166.8c-0.4,87.9-89.1,158.8-198.2,158.4c-109.1-0.5-197.3-72.1-196.9-160
					c0.2-62.2,44.8-116,109.5-141.9c6.2-2.5,12.7-4.8,19.3-6.7c2.4-0.7,4.8-1.4,7.2-2c17.5-4.6,36-7.3,55.2-7.7
					c2.3-0.1,4.6-0.1,6.9-0.1C774.4,7.3,862.5,78.9,862.2,166.8z"/>
				<path class="st1" d="M665,332.9c-0.3,0-0.7,0-1.1,0c-112.9-0.5-204.5-75.5-204.2-167.3C460,102,503.7,45.1,573.9,17
					c6.4-2.6,13.1-4.9,19.9-6.9c2.7-0.8,5.1-1.5,7.5-2.1c18.4-4.8,37.5-7.5,56.9-7.9c2.3-0.1,4.7-0.1,7.1-0.1
					c54.4,0.2,105.6,17.6,144.1,48.8c38.9,31.6,60.3,73.7,60.1,118.5l0,0C869.1,258.8,777.4,332.9,665,332.9z M664.3,14.1
					c-1.9,0-3.9,0-5.8,0.1c-18.3,0.4-36.3,2.9-53.6,7.5c-2.2,0.6-4.5,1.2-7,2c-6.4,1.9-12.7,4.1-18.7,6.5
					c-64.5,25.8-104.7,77.6-105,135.1C474,249,559.1,317.5,664,317.9c0.3,0,0.7,0,1,0c104.5,0,189.6-67.6,189.9-151.1
					c0.2-40.3-19.3-78.3-54.7-107.1c-35.9-29.2-83.8-45.4-134.9-45.6C664.9,14.1,664.6,14.1,664.3,14.1z"/>
			</g>
			<g>
				<path class="st1" d="M634.4,146.9l-87.7-0.4c0,0,2-84.7,56.4-131.6c17.5-4.6,36-7.3,55.2-7.7C636.1,33.9,609,82.9,634.4,146.9z"
					/>
			</g>
			<g>
				<path class="st1" d="M534.2,152.5l-28-6.4c0,0-7.2-67.2,70.4-122.7c6.2-2.5,12.7-4.8,19.3-6.7
					C566.2,41.9,522.9,90.5,534.2,152.5z"/>
			</g>
			<g>
				<g>
					<path class="st0" d="M1041.2,266.6c-0.1,33.2-168.9,59.4-376.9,58.6c-208-0.8-376.5-28.5-376.4-61.7
						c0.2-56.7,169.2-144.4,377.2-143.6C873.2,120.8,1041.4,210,1041.2,266.6z"/>
				</g>
				<g>
					<path class="st1" d="M664.3,331.1c-100.9-0.4-195.8-7.1-267.2-18.8C319.6,299.6,282,283.7,282,263.5
						c0.1-15.7,11.1-33.3,31.9-50.9c20-16.9,48.5-33.5,82.4-47.8c78.1-33.1,173.6-51.1,268.8-50.7s190.6,19.2,268.4,52.9
						c33.8,14.6,62.2,31.4,82,48.5c20.6,17.8,31.5,35.5,31.5,51.2c-0.1,20.1-37.8,35.8-115.5,47.9
						C860.1,325.6,765.2,331.5,664.3,331.1z M665.1,125.9c-54.3-0.2-160.8,6-264.2,49.7c-32.8,13.9-60.3,29.8-79.4,46
						c-17.8,15.1-27.7,30-27.7,42c0,7.4,22.1,23.5,105.2,37.1c70.8,11.6,165,18.2,265.3,18.6c100.3,0.4,194.6-5.4,265.4-16.5
						c83.2-12.9,105.5-28.9,105.5-36.3c0.1-12-9.7-27-27.4-42.2c-19-16.3-46.3-32.4-79-46.6C884.7,158.6,791.6,126.4,665.1,125.9z"
						/>
				</g>
			</g>
			<g>
				<path class="st1" d="M1041.2,266.6c-0.1,33.2-168.9,59.4-376.9,58.6c-208-0.8-376.5-28.5-376.4-61.7
					c0.1-33.2,168.9-59.4,376.9-58.6C872.8,205.8,1041.3,233.4,1041.2,266.6z"/>
			</g>
			<g>
				<path class="st0" d="M664,318.5c-35.2-0.1-68.4-2.3-93.4-6.1c-33.1-5.1-41.4-11.3-42.9-17.1l-21.4-24.2c-2.7-2.5-3.3-5.2-3.3-7
					c0.1-11,20.3-15.7,50.7-19.4c29.6-3.6,68.9-5.5,110.6-5.3c41.7,0.2,81,2.4,110.6,6.2c42,5.4,50.6,11.8,50.6,19.8
					c0,1.8-0.6,4.4-3.3,6.9l-21.6,24c-1.6,5.8-9.9,12-43.1,16.8C732.4,316.7,699.2,318.7,664,318.5z"/>
			</g>
			<g>
				<path class="st0" d="M819.9,265.7c0-10.7-69.5-19.7-155.3-20.1c-85.8-0.3-155.4,8.1-155.4,18.8c0,0.9,0.5,1.9,1.6,2.8l0,0
					l22.8,25.7l261.7,1.1l23-25.5C819.3,267.6,819.9,266.6,819.9,265.7z"/>
			</g>
			<g>
				<path class="st0" d="M364.9,307.2c0,0-1.8-0.3-5.2-0.8c-3.3-0.6-8.3-1.4-14.5-2.8c-6.2-1.5-13.7-3.3-22.1-6.4
					c-4.2-1.5-8.6-3.3-13.2-5.7c-2.3-1.2-4.6-2.6-6.8-4.2c-2.2-1.7-4.5-3.5-6.4-6.2c-0.9-1.3-1.8-2.8-2.3-4.6
					c-0.2-0.9-0.4-1.8-0.5-2.8l0-0.2c0-0.1,0,0,0-0.3v-0.3c0-0.2,0-0.3,0-0.6c0.1-0.6,0.1-1.1,0.2-1.6c0.8-3.9,3.2-6.7,5.6-9
					c2.4-2.3,5.1-4.1,7.9-5.7s5.7-3,8.6-4.3c11.8-5.1,24.6-8.9,38-12.1c13.4-3.2,27.2-5.9,41.4-8.2c14.2-2.2,28.6-4.2,43-5.8
					c14.5-1.6,28.9-2.8,43.2-4c14.2-1.2,28.3-1.8,41.9-2.5c13.6-0.7,26.8-1,39.2-1.2c12.5-0.3,24.3-0.3,35.1-0.2
					c10.9,0,20.8,0.2,29.7,0.5c8.8,0.2,16.5,0.5,22.9,0.8c6.3,0.2,11.3,0.6,14.7,0.8c3.4,0.2,5.2,0.3,5.2,0.3s-28.9,1.5-72.3,3.9
					c-10.8,0.6-22.6,1.3-35,2.1c-12.4,0.8-25.5,1.7-39,2.6c-13.5,0.9-27.4,2.2-41.6,3.3c-14.2,1.2-28.5,2.6-42.8,4.3
					c-14.3,1.5-28.6,3.3-42.7,5.4c-14,2.1-27.8,4.3-40.9,7.1c-13.1,2.8-25.8,5.9-37,10.2c-5.6,2.2-10.9,4.7-14.8,7.9
					c-1.9,1.6-3.4,3.4-3.9,5.1c-0.5,1.6-0.1,3.5,1.2,5.3c1.2,1.9,2.9,3.6,4.8,5.2c1.9,1.5,3.9,2.9,5.9,4.2c4.1,2.5,8.2,4.6,12.1,6.4
					c7.9,3.6,15.2,6.2,21.2,8.2c6,2,10.8,3.4,14,4.3C363.2,306.7,364.9,307.2,364.9,307.2z"/>
			</g>
			<g>
				<g>
					<g>
						<path class="st0" d="M488.8,258.3c0,4.3-12.7,7.7-28.3,7.7c-15.6-0.1-28.2-3.6-28.2-7.9c0-4.3,12.7-7.7,28.3-7.7
							C476.2,250.5,488.8,254,488.8,258.3z"/>
					</g>
					<g>
						<path class="st1" d="M492.2,260.1c0,4.3-12.7,7.7-28.3,7.7c-15.6-0.1-28.2-3.6-28.2-7.9c0-4.3,12.7-7.7,28.3-7.7
							C479.6,252.2,492.2,255.8,492.2,260.1z"/>
					</g>
				</g>
				<g>
					<g>
						<path class="st0" d="M486,261.8c0,3.5-10.8,6.3-24.2,6.2c-13.3,0-24.2-2.9-24.1-6.4c0-3.5,10.8-6.3,24.2-6.2
							C475.2,255.4,486,258.3,486,261.8z"/>
					</g>
					<g>
						<path class="st1" d="M488.8,263.2c0,3.5-10.8,6.3-24.2,6.2c-13.3,0-24.2-2.9-24.1-6.4c0-3.5,10.8-6.3,24.2-6.2
							C478,256.8,488.8,259.7,488.8,263.2z"/>
					</g>
				</g>
				<g>
					<path class="st0" d="M476.8,264.2c0,1-6.7,1.8-15,1.7s-15-0.9-15-1.9c0-1,6.7-1.8,15-1.7C470.1,262.4,476.8,263.2,476.8,264.2z
						"/>
				</g>
			</g>
			<g>
				<g>
					<g>
						<path class="st0" d="M490.5,296.9c0,2.2-6.6,4-14.8,4c-8.2,0-14.8-1.9-14.7-4.1s6.6-4,14.8-4
							C483.9,292.8,490.6,294.6,490.5,296.9z"/>
					</g>
					<g>
						<path class="st1" d="M492.3,297.8c0,2.2-6.6,4-14.8,4s-14.8-1.9-14.7-4.1s6.6-4,14.8-4C485.7,293.7,492.3,295.5,492.3,297.8z"
							/>
					</g>
				</g>
				<g>
					<g>
						<path class="st0" d="M489,298.6c0,1.8-5.7,3.3-12.6,3.2s-12.6-1.5-12.6-3.3c0-1.8,5.7-3.3,12.6-3.2
							C483.4,295.3,489.1,296.8,489,298.6z"/>
					</g>
					<g>
						<path class="st1" d="M490.5,299.4c0,1.8-5.7,3.3-12.6,3.2s-12.6-1.5-12.6-3.3c0-1.8,5.7-3.3,12.6-3.2
							C484.9,296.1,490.5,297.6,490.5,299.4z"/>
					</g>
				</g>
				<g>
					<path class="st0" d="M484.2,299.9c0,0.5-3.5,0.9-7.8,0.9s-7.8-0.5-7.8-1s3.5-0.9,7.8-0.9C480.7,299,484.2,299.4,484.2,299.9z"
						/>
				</g>
			</g>
			<g>
				<g>
					<path class="st1" d="M587.8,142.2C425,166.5,397.1,189.6,368,202.1c-30.6,13.1-52,29.5-74.4,50.2c15.9-4.6,49.3-17.6,72.1-21.8
						c42.4-7.8,160.3-19.1,214.5-23c0,0-123.7,7.8-121.9-12.4C460.6,169.5,587.8,142.2,587.8,142.2z"/>
				</g>
				<g>
					<path class="st1" d="M1034.5,254.5c-14.4-4.2-43.4-17.5-65.7-22.7c-2.3-0.5-4.5-1-6.6-1.4c-1-0.2-2-0.4-3-0.5
						c-44.4-7.8-157-18.5-210.4-22.4c12.1,0.7,122.6,6.7,120.9-12.5c-2.2-25.2-125.6-52-129.4-52.9
						c110.3,16.5,158.7,32.4,187.4,44.9c5.7,2.5,10.5,4.8,15,6.9c6.4,3,11.8,5.8,17.3,8.2C990.6,215.3,1015.3,231.2,1034.5,254.5z"
						/>
				</g>
			</g>
			<g>
				<g>
					<g>
						<path class="st0" d="M840.3,259.8c0,4.3,12.6,7.8,28.2,7.9s28.3-3.4,28.3-7.7c0-4.3-12.6-7.8-28.2-7.9
							C853,252,840.4,255.5,840.3,259.8z"/>
					</g>
					<g>
						<path class="st1" d="M837,261.5c0,4.3,12.6,7.8,28.2,7.9s28.3-3.4,28.3-7.7c0-4.3-12.6-7.8-28.2-7.9S837,257.2,837,261.5z"/>
					</g>
				</g>
				<g>
					<g>
						<path class="st0" d="M843.2,263.2c0,3.5,10.8,6.3,24.1,6.4c13.3,0,24.2-2.7,24.2-6.2c0-3.5-10.8-6.3-24.1-6.4
							C854,257,843.2,259.8,843.2,263.2z"/>
					</g>
					<g>
						<path class="st1" d="M840.3,264.6c0,3.5,10.8,6.3,24.1,6.4c13.3,0,24.2-2.7,24.2-6.2c0-3.5-10.8-6.3-24.1-6.4
							C851.2,258.4,840.3,261.1,840.3,264.6z"/>
					</g>
				</g>
				<g>
					<path class="st0" d="M852.3,265.8c0,1,6.7,1.8,15,1.9c8.3,0,15-0.8,15-1.7c0-1-6.7-1.8-15-1.9
						C859.1,264,852.3,264.8,852.3,265.8z"/>
				</g>
			</g>
			<g>
				<g>
					<g>
						<path class="st0" d="M838.3,298.3c0,2.2,6.6,4.1,14.7,4.1s14.8-1.8,14.8-4s-6.6-4.1-14.7-4.1
							C844.9,294.2,838.3,296,838.3,298.3z"/>
					</g>
					<g>
						<path class="st1" d="M836.6,299.2c0,2.2,6.6,4.1,14.7,4.1s14.8-1.8,14.8-4s-6.6-4.1-14.7-4.1
							C843.2,295.1,836.6,296.9,836.6,299.2z"/>
					</g>
				</g>
				<g>
					<g>
						<path class="st0" d="M839.8,300.1c0,1.8,5.6,3.3,12.6,3.3s12.6-1.4,12.6-3.2s-5.6-3.3-12.6-3.3
							C845.5,296.8,839.8,298.3,839.8,300.1z"/>
					</g>
					<g>
						<path class="st1" d="M838.3,300.8c0,1.8,5.6,3.3,12.6,3.3s12.6-1.4,12.6-3.2s-5.6-3.3-12.6-3.3
							C844,297.5,838.3,299,838.3,300.8z"/>
					</g>
				</g>
				<g>
					<path class="st0" d="M844.6,301.4c0,0.5,3.5,1,7.8,1c4.3,0,7.8-0.4,7.8-0.9c0-0.5-3.5-1-7.8-1
						C848.1,300.5,844.6,300.9,844.6,301.4z"/>
				</g>
			</g>
			<g>
				<g>
					<path class="st1" d="M549.7,252.6c14.9-2.3,17.9-3.1,36.9-4l7.5,30c-32,4-55,12.6-59.2,16.9l-25.6-31.1
						C511.6,262.4,522.3,256.8,549.7,252.6z"/>
				</g>
				<g>
					<path class="st1" d="M579,249.1c0,0,40.2-3.1,54.5-3.5l-54.6,8L579,249.1z"/>
					<path class="st1" d="M579.2,256.1l0.1-4.4c0.4,0,39.6-2.8,52.5-3.2C631.4,248.6,579.2,256.1,579.2,256.1z"/>
					<path class="st1" d="M578.9,258.7l0.2-4.3c0.8-0.1,38.9-2.5,50.4-2.8C628.7,251.6,578.9,258.7,578.9,258.7z"/>
					<path class="st1" d="M578.6,261.4l0.4-4.3c1.1-0.1,38.3-2.1,48.3-2.4C626,254.6,578.6,261.4,578.6,261.4z"/>
					<path class="st1" d="M578.3,264l0.5-4.3c1.5-0.1,37.6-1.8,46.2-2.1C623.4,257.7,578.3,264,578.3,264z"/>
					<path class="st1" d="M578.1,266.6l0.6-4.2c1.9-0.2,37-1.5,44.1-1.7C620.7,260.7,578.1,266.6,578.1,266.6z"/>
					<path class="st1" d="M577.8,269.3l0.7-4.2c2.3-0.2,36.3-1.2,42-1.3C618,263.7,577.8,269.3,577.8,269.3z"/>
					<path class="st1" d="M577.5,271.8l0.8-4.2c2.6-0.2,35.7-0.8,39.9-1C615.4,266.7,577.5,271.8,577.5,271.8z"/>
					<path class="st1" d="M577.2,274.4l0.9-4.2c3-0.3,35-0.5,37.9-0.6C612.7,269.7,577.2,274.4,577.2,274.4z"/>
					<path class="st1" d="M576.9,277l1-4.1c3.4-0.3,34.4-0.2,35.8-0.2C610,272.7,576.9,277,576.9,277z"/>
					<path class="st1" d="M576.7,279.8c0,0,30.7-3.9,34.8-4c0,0-29.9-0.5-33.7-0.1L576.7,279.8z"/>
				</g>
			</g>
			<g>
				<g>
					<path class="st1" d="M779.6,253.5c-14.8-2.4-17.8-3.2-36.8-4.2l-7.7,30c32,4.2,54.8,13,59.1,17.4l25.8-30.9
						C817.5,263.6,806.8,258,779.6,253.5z"/>
				</g>
				<g>
					<path class="st1" d="M750,249.8c0,0-40.2-3.4-54.5-4l54.5,8.4L750,249.8z"/>
					<path class="st1" d="M750,256.8c0,0-52.1-8-52.5-8c12.9,0.5,52.1,3.6,52.4,3.6L750,256.8z"/>
					<path class="st1" d="M750.3,259.4c0,0-49.7-7.5-50.6-7.6c11.4,0.5,49.6,3.1,50.3,3.2L750.3,259.4z"/>
					<path class="st1" d="M750.5,262.1c0,0-47.3-7.1-48.6-7.2c10,0.4,47.1,2.7,48.3,2.8L750.5,262.1z"/>
					<path class="st1" d="M750.8,264.7c0,0-45-6.7-46.6-6.7c8.6,0.3,44.7,2.3,46.2,2.5L750.8,264.7z"/>
					<path class="st1" d="M751,267.3c0,0-42.6-6.3-44.7-6.3c7.2,0.3,42.2,1.9,44.1,2.1L751,267.3z"/>
					<path class="st1" d="M751.3,270c0,0-40.2-5.9-42.7-5.9c5.7,0.2,39.8,1.4,42,1.7L751.3,270z"/>
					<path class="st1" d="M751.6,272.6c0,0-37.8-5.4-40.7-5.5c4.3,0.2,37.3,1,39.9,1.3L751.6,272.6z"/>
					<path class="st1" d="M751.8,275.2c0,0-35.4-5-38.8-5.1c2.9,0.1,34.9,0.6,37.9,0.9L751.8,275.2z"/>
					<path class="st1" d="M752.1,277.9c0,0-33-4.6-36.8-4.7c1.4,0.1,32.4,0.2,35.8,0.5L752.1,277.9z"/>
					<path class="st1" d="M752.3,280.5c0,0-30.7-4.2-34.8-4.2c0,0,29.9-0.3,33.7,0.1L752.3,280.5z"/>
				</g>
			</g>
			<g>
				<path class="st0" d="M960.3,244.3c0,0-1.2-39.5-37.2-59.4l4.8,0c0,0,37.3,17.6,42.4,61.5L960.3,244.3z"/>
			</g>
			<g>
				<path class="st0" d="M368.3,242c0,0,1.6-39.5,37.6-59.1l-4.8,0c0,0-37.4,17.3-42.9,61.2L368.3,242z"/>
			</g>
			<g>
				<path class="st0" d="M579.5,245.3c0,0-8.2,23.3,1.9,35.7c0,0-22.7-13.2-23.4-32.5L579.5,245.3z"/>
			</g>
			<g>
				
					<ellipse transform="matrix(4.089557e-03 -1 1 4.089557e-03 368.2667 956.7236)" class="st1" cx="664.5" cy="293.5" rx="19.5" ry="130.9"/>
			</g>
			<g>
				
					<ellipse transform="matrix(4.088613e-03 -1 1 4.088613e-03 368.0494 956.9388)" class="st0" cx="664.5" cy="293.7" rx="12.4" ry="96.5"/>
			</g>
			<g>
				<path class="st0" d="M363.4,274.7c0,1.2-6.1,2.1-13.6,2.1c-7.5,0-13.6-1-13.6-2.2c0-1.2,6.1-2.1,13.6-2.1
					C357.3,272.5,363.4,273.5,363.4,274.7z"/>
			</g>
			<g>
				<path class="st0" d="M965.7,277.1c0,1.2,6.1,2.2,13.6,2.2c7.5,0,13.6-0.9,13.6-2.1c0-1.2-6.1-2.2-13.6-2.2
					S965.7,275.9,965.7,277.1z"/>
			</g>
			<g>
				<g>
					<path class="st0" d="M1203.4,408.4c-0.2,47.5-241.6,85-539.2,83.8C366.5,491,125.4,451.5,125.6,404
						c0.3-81.1,242.1-206.7,539.8-205.5C963,199.8,1203.7,327.3,1203.4,408.4z"/>
				</g>
				<g>
					<path class="st1" d="M664.1,500.7c-144.4-0.6-280.2-10.1-382.3-26.9c-110.9-18.2-164.8-41-164.7-69.8
						c0.1-22.5,15.9-47.7,45.6-72.9c28.6-24.2,69.4-47.9,117.9-68.4c111.7-47.3,248.4-73.1,384.7-72.5
						c136.3,0.6,272.7,27.4,384.1,75.7c48.4,21,88.9,45,117.4,69.4c29.5,25.4,45.1,50.8,45,73.3c-0.1,28.8-54.2,51.2-165.2,68.5
						C944.3,492.8,808.5,501.3,664.1,500.7z M665.3,207c-77.7-0.3-230.1,8.5-378,71.2c-47,19.9-86.3,42.7-113.6,65.8
						c-25.5,21.6-39.6,42.9-39.6,60.1c0,10.6,31.6,33.6,150.5,53.1c101.3,16.6,236.1,26.1,379.6,26.6
						c143.5,0.6,278.4-7.8,379.8-23.5c119.1-18.5,150.9-41.3,150.9-51.9c0.1-17.2-13.8-38.6-39.1-60.4
						c-27.1-23.3-66.2-46.4-113.1-66.7C979.5,253.8,846.2,207.7,665.3,207z"/>
				</g>
			</g>
			<g>
				<path class="st1" d="M1203.4,408.4c-0.2,47.5-241.6,85-539.2,83.8C366.5,491,125.4,451.5,125.6,404
					c0.2-47.5,241.6-85,539.3-83.8C962.5,321.4,1203.6,360.9,1203.4,408.4z"/>
			</g>
			<g>
				<path class="st0" d="M663.7,482.7c-50.4-0.2-97.9-3.3-133.6-8.8c-47.4-7.2-59.2-16.2-61.4-24.5L438,414.8
					c-3.9-3.6-4.7-7.4-4.7-10c0.1-15.8,29.1-22.5,72.6-27.8c42.3-5.1,98.5-7.8,158.2-7.6s115.9,3.4,158.2,8.9
					c60.1,7.8,72.4,17,72.4,28.3c0,2.6-0.9,6.3-4.8,9.9L859,451c-2.3,8.3-14.2,17.2-61.7,24C761.6,480.1,714.1,482.9,663.7,482.7z"
					/>
			</g>
			<g>
				<path class="st0" d="M886.8,407c0.1-15.4-99.4-28.2-222.2-28.7s-222.3,11.5-222.4,26.9c0,1.3,0.8,2.7,2.3,4l0,0l32.6,36.8
					l374.5,1.5l32.9-36.5C886,409.6,886.8,408.3,886.8,407z"/>
			</g>
			<g>
				<path class="st0" d="M236.4,466.5c0,0-2.6-0.5-7.3-1.3c-4.8-0.9-11.8-2.2-20.6-4.4c-8.8-2.2-19.5-5-31.5-9.5
					c-6-2.3-12.2-4.9-18.6-8.4c-3.2-1.7-6.4-3.7-9.5-6c-3.1-2.3-6.2-5-8.8-8.6c-1.3-1.8-2.4-3.8-3.1-6.2c-0.3-1.2-0.6-2.4-0.6-3.7
					l0-0.5l0-0.5c0-0.3,0-0.5,0-0.8c0.1-0.7,0.2-1.4,0.3-2c1.1-5.1,4.3-8.9,7.7-12c3.4-3.1,7.2-5.6,11.1-7.8c3.9-2.2,8-4.2,12.2-6
					c16.8-7.2,35.1-12.4,54.1-16.9c19.1-4.4,38.9-8.3,59.1-11.4c20.2-3.2,40.9-5.9,61.5-8.2c20.7-2.3,41.3-4.1,61.7-5.7
					c20.4-1.7,40.5-2.7,59.9-3.7c19.4-1,38.2-1.6,56.1-2c17.8-0.5,34.7-0.6,50.2-0.7c15.6-0.1,29.8,0.1,42.5,0.3
					c12.6,0.2,23.7,0.5,32.7,0.7c9.1,0.2,16.2,0.6,21.1,0.8c4.9,0.2,7.4,0.3,7.4,0.3s-10.4,0.4-28.5,1.1c-9.1,0.3-20.1,0.8-32.7,1.3
					c-12.6,0.5-26.8,1.2-42.3,1.8c-15.5,0.8-32.3,1.6-50.1,2.5c-17.8,1-36.5,2.2-55.8,3.5s-39.3,3-59.6,4.6
					c-20.3,1.7-40.8,3.7-61.4,6c-20.5,2.2-41,4.8-61.1,7.8c-20.1,3-39.8,6.3-58.6,10.4c-18.8,4.2-36.9,8.6-53.1,15
					c-8,3.2-15.7,6.9-21.6,11.8c-2.9,2.4-5.2,5.2-5.9,8.1c-0.8,2.8,0.1,5.9,2,8.7c1.8,2.8,4.4,5.4,7.2,7.6c2.7,2.2,5.7,4.2,8.6,6
					c5.9,3.6,11.9,6.5,17.6,9c11.5,5,21.9,8.6,30.5,11.3c8.6,2.7,15.5,4.6,20.2,5.9C233.9,465.9,236.4,466.5,236.4,466.5z"/>
			</g>
			<g>
				<g>
					<g>
						<path class="st0" d="M413.1,396.6c0,6.2-18.1,11.1-40.5,11s-40.4-5.2-40.4-11.3c0-6.2,18.1-11.1,40.5-11
							C395,385.3,413.1,390.4,413.1,396.6z"/>
					</g>
					<g>
						
							<ellipse transform="matrix(4.089179e-03 -1 1 4.089179e-03 -22.9729 774.6331)" class="st1" cx="377.4" cy="398.9" rx="11.2" ry="40.4"/>
					</g>
				</g>
				<g>
					<g>
						<path class="st0" d="M408.9,401.5c0,5-15.5,9-34.6,8.9s-34.6-4.2-34.5-9.2c0-5,15.5-9,34.6-8.9
							C393.5,392.4,409,396.5,408.9,401.5z"/>
					</g>
					<g>
						<path class="st1" d="M413,403.5c0,5-15.5,9-34.6,8.9s-34.6-4.2-34.5-9.2s15.5-9,34.6-8.9C397.6,394.4,413,398.5,413,403.5z"/>
					</g>
				</g>
				<g>
					<path class="st0" d="M395.8,405c0,1.4-9.6,2.5-21.5,2.5c-11.9,0-21.5-1.2-21.5-2.7c0-1.4,9.6-2.5,21.5-2.5
						C386.2,402.4,395.8,403.6,395.8,405z"/>
				</g>
			</g>
			<g>
				<g>
					<g>
						<path class="st0" d="M415.5,451.7c0,3.2-9.5,5.8-21.1,5.7s-21.1-2.7-21.1-5.9c0-3.2,9.5-5.8,21.1-5.7S415.5,448.4,415.5,451.7
							z"/>
					</g>
					<g>
						<path class="st1" d="M418,453c0,3.2-9.5,5.8-21.1,5.7s-21.1-2.7-21.1-5.9s9.5-5.8,21.1-5.7C408.6,447.1,418,449.7,418,453z"/>
					</g>
				</g>
				<g>
					<g>
						<path class="st0" d="M413.3,454.2c0,2.6-8.1,4.7-18.1,4.6s-18.1-2.2-18.1-4.8c0-2.6,8.1-4.7,18.1-4.6
							C405.3,449.5,413.3,451.6,413.3,454.2z"/>
					</g>
					<g>
						<path class="st1" d="M415.5,455.3c0,2.6-8.1,4.7-18.1,4.6s-18.1-2.2-18.1-4.8c0-2.6,8.1-4.7,18.1-4.6
							C407.4,450.5,415.5,452.7,415.5,455.3z"/>
					</g>
				</g>
				<g>
					<path class="st0" d="M406.5,456.1c0,0.8-5,1.3-11.2,1.3c-6.2,0-11.2-0.7-11.2-1.4s5-1.3,11.2-1.3
						C401.5,454.7,406.5,455.3,406.5,456.1z"/>
				</g>
			</g>
			<g>
				<g>
					<g>
						<path class="st0" d="M916,398.6c0,6.2,18.1,11.2,40.4,11.3c22.3,0.1,40.4-4.8,40.5-11c0-6.2-18.1-11.2-40.4-11.3
							C934.2,387.5,916,392.5,916,398.6z"/>
					</g>
					<g>
						<path class="st1" d="M911.2,401c0,6.2,18.1,11.2,40.4,11.3c22.3,0.1,40.4-4.8,40.5-11c0-6.2-18.1-11.2-40.4-11.3
							C929.4,390,911.2,394.9,911.2,401z"/>
					</g>
				</g>
				<g>
					<g>
						
							<ellipse transform="matrix(4.090007e-03 -1 1 4.090007e-03 547.0936 1356.6877)" class="st0" cx="954.7" cy="403.7" rx="9" ry="34.6"/>
					</g>
					<g>
						<path class="st1" d="M916,405.5c0,5,15.4,9.1,34.5,9.2c19.1,0.1,34.6-3.9,34.6-8.9s-15.4-9.1-34.5-9.2
							C931.5,396.6,916,400.5,916,405.5z"/>
					</g>
				</g>
				<g>
					<path class="st0" d="M933.2,407.2c0,1.4,9.6,2.6,21.5,2.7s21.5-1.1,21.5-2.5s-9.6-2.6-21.5-2.7
						C942.8,404.6,933.2,405.8,933.2,407.2z"/>
				</g>
			</g>
			<g>
				<g>
					<g>
						<path class="st0" d="M913.1,453.7c0,3.2,9.4,5.9,21.1,5.9c11.7,0,21.1-2.5,21.1-5.7s-9.4-5.9-21.1-5.9
							C922.6,447.9,913.1,450.5,913.1,453.7z"/>
					</g>
					<g>
						<path class="st1" d="M910.6,455c0,3.2,9.4,5.9,21.1,5.9c11.7,0,21.1-2.5,21.1-5.7s-9.4-5.9-21.1-5.9
							C920.1,449.2,910.6,451.7,910.6,455z"/>
					</g>
				</g>
				<g>
					<g>
						<path class="st0" d="M915.3,456.3c0,2.6,8.1,4.7,18.1,4.8c10,0,18.1-2,18.1-4.6c0-2.6-8.1-4.7-18.1-4.8
							C923.4,451.6,915.3,453.7,915.3,456.3z"/>
					</g>
					<g>
						<path class="st1" d="M913.1,457.3c0,2.6,8.1,4.7,18.1,4.8c10,0,18.1-2,18.1-4.6c0-2.6-8.1-4.7-18.1-4.8
							C921.2,452.6,913.1,454.7,913.1,457.3z"/>
					</g>
				</g>
				<g>
					<path class="st0" d="M922.1,458.2c0,0.8,5,1.4,11.2,1.4s11.2-0.6,11.2-1.3c0-0.8-5-1.4-11.2-1.4S922.1,457.4,922.1,458.2z"/>
				</g>
			</g>
			<g>
				<g>
					<path class="st1" d="M500.1,388.3c21.3-3.3,25.6-4.4,52.8-5.7l10.7,43c-45.8,5.7-78.6,18-84.8,24.2l-36.6-44.5
						C445.7,402.4,461,394.4,500.1,388.3z"/>
				</g>
				<g>
					<path class="st1" d="M543,383.3c0,0,57.6-4.4,78-5.1L543,389.6L543,383.3z"/>
					<path class="st1" d="M542.3,393.4l0.2-6.3c0.5,0,56.6-4,75.1-4.5C617,382.6,542.3,393.4,542.3,393.4z"/>
					<path class="st1" d="M541.9,397.1l0.3-6.2c1.1-0.1,55.7-3.5,72.1-4C613.2,386.9,541.9,397.1,541.9,397.1z"/>
					<path class="st1" d="M541.5,400.9l0.5-6.2c1.6-0.2,54.8-3,69.1-3.5C609.4,391.2,541.5,400.9,541.5,400.9z"/>
					<path class="st1" d="M541.1,404.7l0.7-6.1c2.2-0.2,53.8-2.6,66.1-3C605.5,395.6,541.1,404.7,541.1,404.7z"/>
					<path class="st1" d="M540.7,408.3l0.8-6.1c2.7-0.3,52.9-2.1,63.1-2.4C601.7,399.8,540.7,408.3,540.7,408.3z"/>
					<path class="st1" d="M540.3,412.1l1-6c3.2-0.3,52-1.7,60.2-1.9C597.9,404.2,540.3,412.1,540.3,412.1z"/>
					<path class="st1" d="M539.9,415.8l1.2-6c3.8-0.4,51-1.2,57.2-1.4C594.1,408.5,539.9,415.8,539.9,415.8z"/>
					<path class="st1" d="M539.5,419.6l1.3-5.9c4.3-0.4,50.1-0.7,54.2-0.9C590.3,412.8,539.5,419.6,539.5,419.6z"/>
					<path class="st1" d="M539.1,423.3l1.5-5.9c4.8-0.5,49.2-0.3,51.2-0.3C586.4,417.1,539.1,423.3,539.1,423.3z"/>
					<path class="st1" d="M538.7,427.2c0,0,43.9-5.6,49.9-5.7c0,0-42.8-0.7-48.2-0.2L538.7,427.2z"/>
				</g>
			</g>
			<g>
				<g>
					<path class="st1" d="M829.1,389.7c-21.2-3.5-25.5-4.6-52.7-6.1l-11.1,42.9c45.7,6.1,78.5,18.6,84.5,24.9l36.9-44.2
						C883.3,404.2,868.1,396,829.1,389.7z"/>
				</g>
				<g>
					<path class="st1" d="M786,384.3c0,0-57.5-4.9-78-5.7l78,12L786,384.3z"/>
					<path class="st1" d="M786.8,394.4c0,0-74.6-11.4-75.2-11.4c18.4,0.7,74.5,5.1,75,5.2L786.8,394.4z"/>
					<path class="st1" d="M787.1,398.1c0,0-71.2-10.8-72.3-10.8c16.4,0.7,71,4.5,72,4.6L787.1,398.1z"/>
					<path class="st1" d="M787.5,401.9c0,0-67.7-10.2-69.5-10.2c14.3,0.6,67.4,3.9,69.1,4.1L787.5,401.9z"/>
					<path class="st1" d="M787.9,405.7c0,0-64.3-9.6-66.7-9.6c12.3,0.5,63.9,3.3,66.1,3.5L787.9,405.7z"/>
					<path class="st1" d="M788.2,409.4c0,0-60.9-9-63.9-9c10.2,0.4,60.4,2.7,63.1,3L788.2,409.4z"/>
					<path class="st1" d="M788.6,413.2c0,0-57.5-8.4-61.1-8.4c8.2,0.3,56.9,2.1,60.1,2.4L788.6,413.2z"/>
					<path class="st1" d="M789,417c0,0-54.1-7.8-58.3-7.8c6.1,0.2,53.4,1.5,57.2,1.8L789,417z"/>
					<path class="st1" d="M789.3,420.7c0,0-50.7-7.2-55.4-7.2c4.1,0.2,49.9,0.8,54.2,1.3L789.3,420.7z"/>
					<path class="st1" d="M789.7,424.5c0,0-47.3-6.6-52.6-6.7c2.1,0.1,46.4,0.2,51.2,0.8L789.7,424.5z"/>
					<path class="st1" d="M790.1,428.3c0,0-43.9-6-49.8-6c0,0,42.8-0.4,48.2,0.2L790.1,428.3z"/>
				</g>
			</g>
			<g>
				<path class="st0" d="M542.8,377.9c0,0-11.7,33.3,2.8,51.1c0,0-32.5-18.8-33.6-46.5L542.8,377.9z"/>
			</g>
			<g>
				
					<ellipse transform="matrix(4.088563e-03 -1 1 4.088563e-03 214.7885 1109.3499)" class="st1" cx="664.3" cy="446.8" rx="27.8" ry="187.2"/>
			</g>
			<g>
				<path class="st0" d="M776.6,447.6c0,9.8-50.3,17.5-112.3,17.3s-112.2-8.4-112.2-18.2c0-9.8,50.3-17.5,112.3-17.3
					C726.4,429.7,776.6,437.8,776.6,447.6z"/>
			</g>
			<g>
				<path class="st0" d="M233.5,419.9c0,1.7-8.7,3-19.4,3c-10.7,0-19.4-1.4-19.4-3.1c0-1.7,8.7-3,19.4-3
					C224.8,416.8,233.5,418.2,233.5,419.9z"/>
			</g>
			<g>
				<path class="st0" d="M1095.3,423.4c0,1.7,8.7,3.1,19.4,3.1c10.7,0,19.4-1.3,19.4-3c0-1.7-8.7-3.1-19.4-3.1
					C1104.1,420.4,1095.4,421.8,1095.3,423.4z"/>
			</g>
			<g>
				<path class="st1" d="M694.3,25.2c0,0,84.7-0.2,137.1,84.4c3.8,6.1-1.7,13.8-8.7,12.1c-28.3-6.8-86.6-18.1-151.1-14.5
					c0,0,44.5-11.5,136.3,4.1c7.1,1.2,12.1-6.8,7.8-12.7C798.6,75.1,759.3,32.8,694.3,25.2z"/>
			</g>
			<g>
				<g>
					<path class="st1" d="M555,230c-231.8,34.7-271.4,67.5-312.8,85.3c-43.6,18.7-74,42-105.8,71.4c22.7-6.5,70.2-25.1,102.6-31.1
						c60.3-11.1,228.1-27.2,305.2-32.7c0,0-176,11.2-173.5-17.6C373.8,268.9,555,230,555,230z"/>
				</g>
				<g>
					<path class="st1" d="M1190.3,386.7c-20.6-5.9-61.6-21.7-93.2-29.1c-3.2-0.7-6.3-1.4-9.4-2c-1.4-0.2-2.8-0.5-4.3-0.8
						c-63.2-11-223.4-26.4-299.4-31.8c17.2,1,174.4,9.5,172-17.7c-3.2-35.8-178.7-74.1-184.2-75.3c157,23.5,225.8,46.1,266.7,63.8
						c8,3.5,15,6.8,21.3,9.8c9,4.3,16.8,8.2,24.7,11.6C1128.1,334.1,1158.5,357.3,1190.3,386.7z"/>
				</g>
			</g>
			<g>
				<path class="st0" d="M1113.7,365.9c0,0,1.6,0.3,4.5,0.8c2.9,0.5,7.2,1.3,12.6,2.5c5.4,1.2,12,2.6,19.4,4.8
					c7.4,2.1,15.8,4.7,24.7,8.7c4.4,2,9,4.3,13.5,7.4c2.2,1.5,4.4,3.3,6.5,5.5c2,2.2,4,4.9,5,8.2c0.6,1.7,0.8,3.4,0.8,5.5
					c0,0.4,0,0.7-0.1,1.1l-0.2,1.5c-0.2,1-0.4,1.8-0.8,2.7c-1.3,3.4-3.3,6.2-5.6,8.5c-4.5,4.7-9.8,8-15.3,10.9
					c-5.4,2.9-11.1,5.4-16.9,7.7c-5.8,2.3-11.7,4.3-17.8,6.1c-12.1,3.7-24.4,6.7-36.8,9.5c-12.4,2.6-24.9,5-37.2,6.9
					c-12.3,2-24.5,3.5-36.3,5c-11.8,1.5-23.2,2.6-34,3.5c-10.8,1-21.1,1.7-30.5,2.3c-9.5,0.6-18.1,1-25.8,1.3
					c-7.7,0.3-14.4,0.5-19.9,0.6c-5.5,0.1-9.9,0.2-12.8,0.2c-3,0-4.5,0-4.5,0s1.6-0.2,4.5-0.6c2.9-0.4,7.2-1,12.7-1.7
					c10.9-1.5,26.6-3.5,45.3-6c9.4-1.3,19.5-2.7,30.2-4.2c10.7-1.5,22-3.2,33.6-5c11.7-1.8,23.6-3.8,35.8-5.9
					c12.2-2.2,24.5-4.5,36.7-7.1c12.2-2.6,24.4-5.5,36.1-8.9c11.7-3.5,23.2-7.2,33.3-12.2c5-2.5,9.7-5.4,13.3-8.7
					c1.8-1.7,3.1-3.5,3.9-5.3c0.2-0.4,0.4-1,0.4-1.3c0-0.2,0.1-0.3,0.1-0.5c0-0.3,0.1-0.7,0.1-1c0.1-0.7,0-1.7-0.2-2.6
					c-0.4-1.8-1.6-3.7-3-5.4c-1.5-1.7-3.2-3.3-5.1-4.8c-3.7-3-7.8-5.4-11.9-7.6c-8.2-4.3-16.1-7.6-23.3-10.3
					c-7.2-2.7-13.5-4.9-18.7-6.6c-5.2-1.7-9.4-3-12.2-3.9C1115.2,366.4,1113.7,365.9,1113.7,365.9z"/>
			</g>
			<g>
				<path class="st0" d="M240.5,372.4c0,0,2.2-56.5,53.8-84.5l-6.9,0c0,0-53.5,24.7-61.4,87.6L240.5,372.4z"/>
			</g>
			<g>
				<path class="st0" d="M1087.7,375.9c0,0-1.8-56.5-53.2-85l6.9,0c0,0,53.3,25.2,60.7,88.1L1087.7,375.9z"/>
			</g>
			<path class="st1" d="M1191.5,386.7l-11.3-3.7l1.1,1.8l9.6,6c0,0,3.2,0.8,2.9,0C1193.5,390,1191.5,386.7,1191.5,386.7z"/>
		</g>
		<g>
			<g>
				<polygon class="st1" points="520.6,453 420.7,883.7 320.7,1314.5 378.6,1094.8 436.4,875.1 552.1,435.7 				"/>
			</g>
			<g>
				<polygon class="st1" points="808.1,453 908,883.7 1007.9,1314.5 950.1,1094.8 892.2,875.1 776.6,435.7 				"/>
			</g>
		</g>
	</g>
	<g>
		<path class="st1" d="M178,1267.9v-107H0v-93.6l170.7-403.4H285v397h44v100l-44,0v107L178,1267.9L178,1267.9z M178,1060.9V888.2
			l-72.9,172.7L178,1060.9L178,1060.9z"/>
		<path class="st1" d="M617.7,1135.6c-16.3,0-33.8-4.2-52.2-12.5c-31.7-14.3-52.3-34.8-61.3-60.7c-8.9-25.8-5.8-55.5,9.1-88.6
			l90.7-200.5c14.9-33,35.3-55,60.5-65.3c10.6-4.4,22-6.6,33.8-6.6c16.3,0,33.8,4.2,52.2,12.5c31.7,14.3,52.3,34.8,61.3,60.7
			c8.9,25.8,5.8,55.6-9.1,88.6l-90.7,200.5c-14.9,33-35.3,55-60.5,65.3C640.9,1133.4,629.6,1135.6,617.7,1135.6z M706.3,780.7
			c-2.7,0-5.3,0.5-7.9,1.4c-6.1,2.3-12.1,9.7-17.3,21.4l-94.2,208.2c-5.3,11.7-6.9,21.1-4.6,27.2c2.3,6.2,7.2,10.9,14.8,14.4
			c4.5,2,8.7,3,12.7,3l0,0c2.7,0,5.3-0.5,7.9-1.4c6.1-2.3,12.1-9.7,17.4-21.4l94.2-208.2c5.3-11.7,6.9-21.1,4.6-27.2
			c-2.3-6.2-7.2-10.9-14.8-14.4C714.5,781.8,710.3,780.7,706.3,780.7z"/>
		<path class="st1" d="M1178,1267.9v-107h-178v-93.6l170.7-403.4H1285v397h44v100l-44,0v107L1178,1267.9L1178,1267.9z M1178,1060.9
			V888.2l-72.9,172.7L1178,1060.9L1178,1060.9z"/>
	</g>
	<g>
		<path class="st1" d="M252.1,1403.3c0.2-2.9,0.8-5.7,1.9-8.2c1.1-2.6,2.7-4.8,4.8-6.7c2.1-1.9,4.6-3.4,7.5-4.5s6.3-1.7,10.2-1.7
			c3.8,0,7.2,0.6,10.1,1.7c3,1.1,5.5,2.6,7.5,4.5c2.1,1.9,3.6,4.1,4.8,6.7c1.1,2.6,1.8,5.3,1.9,8.2c0.1,2.2,0.2,4.6,0.2,7
			c0,2.4-0.1,4.7-0.2,6.9c-0.2,2.9-0.8,5.7-1.9,8.2c-1.1,2.6-2.7,4.8-4.8,6.8c-2.1,1.9-4.6,3.4-7.5,4.5c-3,1.1-6.3,1.6-10.1,1.6
			c-3.8,0-7.2-0.6-10.2-1.6c-2.9-1.1-5.4-2.6-7.5-4.5c-2.1-1.9-3.6-4.2-4.8-6.8c-1.1-2.6-1.8-5.3-1.9-8.2c-0.1-2.1-0.2-4.4-0.2-6.9
			C251.9,1407.9,252,1405.5,252.1,1403.3z M286.3,1416.8c0.1-0.9,0.1-2,0.2-3.1c0.1-1.1,0.1-2.3,0.1-3.5s0-2.3-0.1-3.5
			c-0.1-1.1-0.1-2.1-0.2-3c-0.1-1.3-0.4-2.5-0.8-3.6s-1.1-2-1.9-2.8c-0.8-0.8-1.8-1.4-3-1.9c-1.2-0.5-2.6-0.7-4.2-0.7
			s-3,0.2-4.2,0.7c-1.2,0.5-2.2,1.1-3,1.9c-0.8,0.8-1.4,1.8-1.9,2.8c-0.4,1.1-0.7,2.3-0.8,3.6c-0.1,0.9-0.2,1.9-0.2,3
			c0,1.1,0,2.3,0,3.5s0,2.4,0,3.5s0.1,2.2,0.2,3.1c0.2,2.6,1.1,4.8,2.7,6.5c1.6,1.7,4,2.6,7.2,2.6s5.6-0.9,7.2-2.6
			C285.2,1421.5,286.1,1419.4,286.3,1416.8z"/>
		<path class="st1" d="M349.6,1414.3c0.1,0.8,0.1,1.8,0.1,3s0,2.2-0.1,3c-0.1,2.5-0.7,4.8-1.7,7c-1,2.2-2.5,4.1-4.3,5.7
			c-1.8,1.6-4,2.9-6.6,3.9s-5.4,1.4-8.6,1.4s-6-0.5-8.6-1.4c-2.6-0.9-4.8-2.2-6.6-3.9s-3.2-3.6-4.3-5.7c-1-2.2-1.6-4.5-1.7-7
			c-0.1-0.8-0.1-1.8-0.1-3s0-2.2,0.1-3c0.1-2.5,0.6-4.8,1.6-7c1-2.2,2.5-4.1,4.3-5.7c1.8-1.6,4.1-2.9,6.6-3.9c2.6-1,5.4-1.4,8.6-1.4
			c3.2,0,6,0.5,8.6,1.4c2.6,1,4.8,2.3,6.6,3.9c1.8,1.6,3.3,3.6,4.3,5.7C349,1409.5,349.5,1411.8,349.6,1414.3z M321.3,1419.9
			c0.2,2,0.9,3.5,2.1,4.6s2.9,1.7,5,1.7c2.1,0,3.8-0.6,5-1.7s2-2.7,2.1-4.6c0.1-0.8,0.2-1.7,0.2-2.7s-0.1-1.9-0.2-2.7
			c-0.2-2-0.9-3.5-2.1-4.6s-2.9-1.7-5-1.7c-2.1,0-3.8,0.6-5,1.7s-2,2.7-2.1,4.6c-0.1,0.8-0.2,1.7-0.2,2.7
			C321.1,1418.2,321.2,1419.1,321.3,1419.9z"/>
		<path class="st1" d="M381.4,1438.3c-1.5,0-2.8-0.2-4-0.5c-1.1-0.3-2.1-0.7-3-1.2c-0.8-0.5-1.5-1-2.1-1.5c-0.6-0.6-1-1.1-1.4-1.5
			v16.2c0,0.6-0.2,1.1-0.6,1.5c-0.4,0.4-0.9,0.6-1.5,0.6h-9.8c-0.6,0-1.1-0.2-1.5-0.6c-0.4-0.4-0.6-0.9-0.6-1.5V1399
			c0-0.6,0.2-1.1,0.6-1.5c0.4-0.4,0.9-0.6,1.5-0.6h9.4c0,0,1.1,0.3,1.5,0.7c0.4,0.4,0.6,0.9,0,1.5v1.8c1.1-0.5,1.6-1.1,2.1-1.6
			c0.6-0.6,1.2-1.1,2-1.5c0.8-0.4,1.8-0.8,3-1.1c1.2-0.3,2.6-0.4,4.3-0.4c2.3,0,4.6,0.3,6.6,1.1c2.1,0.7,3.9,1.8,5.5,3.3
			c1.6,1.5,2.8,3.3,3.8,5.6c1,2.2,1.5,4.9,1.6,7.9c0.1,0.8,0.1,1.8,0.1,3.2c0,1.3,0,2.4-0.1,3.2c-0.1,3.1-0.6,5.7-1.6,7.9
			c-1,2.2-2.2,4.1-3.8,5.6c-1.6,1.5-3.4,2.6-5.5,3.3S383.8,1438.3,381.4,1438.3z M385,1419.4c0.2-1.4,0.2-2.9,0-4.4
			c-0.2-1.8-0.8-3.4-1.8-4.8c-1-1.3-2.8-2-5.2-2c-1.1,0-2.1,0.2-3,0.6c-0.8,0.4-1.5,0.8-2.1,1.4c-0.6,0.6-1,1.3-1.3,2
			c-0.3,0.7-0.5,1.5-0.6,2.3s-0.2,1.7-0.2,2.7s0.1,1.9,0.2,2.7c0.1,0.8,0.3,1.5,0.6,2.3c0.3,0.7,0.7,1.4,1.3,2s1.2,1.1,2.1,1.4
			c0.8,0.4,1.8,0.6,3,0.6c2.4,0,4.2-0.7,5.2-2C384.2,1422.8,384.8,1421.3,385,1419.4z"/>
		<path class="st1" d="M429.4,1425.2c0-0.6-0.2-1-0.6-1.3c-0.4-0.3-1.1-0.6-2-0.8c-1-0.2-2.2-0.4-3.7-0.6c-1.5-0.2-3.5-0.5-5.8-0.9
			c-4-0.7-7.1-2.2-9.2-4.4c-2.2-2.2-3.2-5.1-3.2-8.7c0-1.8,0.4-3.4,1.3-5c0.9-1.5,2.1-2.9,3.7-4c1.6-1.2,3.5-2.1,5.8-2.7
			c2.3-0.7,4.8-1,7.6-1c2.7,0,5.3,0.3,7.6,1c2.3,0.7,4.3,1.5,6,2.5c1.7,1,3,2.2,4,3.5c1,1.3,1.5,2.7,1.6,4c0.1,0.6-0.1,1.1-0.6,1.5
			c-0.4,0.4-1,0.6-1.5,0.6h-9.4c-0.6,0-1-0.1-1.4-0.4c-0.3-0.3-0.7-0.6-1.2-0.9c-0.5-0.3-1.1-0.6-1.8-0.9c-0.8-0.3-1.8-0.4-3.2-0.4
			c-1.2,0-2.2,0.2-3,0.5c-0.8,0.3-1.2,0.9-1.2,1.7c0,0.6,0.1,1,0.4,1.3c0.3,0.3,0.8,0.6,1.6,0.7c0.8,0.2,1.9,0.4,3.3,0.6
			c1.4,0.2,3.3,0.5,5.6,0.9c4.8,0.8,8.3,2.4,10.4,4.9c2.2,2.4,3.3,5.2,3.3,8.4c0,1.8-0.4,3.5-1.3,5c-0.9,1.5-2.2,2.9-3.9,4.1
			c-1.7,1.2-3.8,2.1-6.3,2.8c-2.5,0.7-5.3,1-8.4,1c-3.2,0-5.9-0.4-8.3-1.1c-2.4-0.7-4.4-1.6-6-2.7c-1.6-1.1-2.9-2.3-3.7-3.6
			c-0.9-1.3-1.4-2.6-1.5-3.9c-0.1-0.6,0.1-1.1,0.6-1.5c0.4-0.4,1-0.6,1.5-0.6h9.8c0.6,0,1,0.1,1.3,0.4c0.3,0.3,0.6,0.6,1,0.9
			c0.4,0.3,1,0.7,1.8,1c0.8,0.3,2,0.4,3.5,0.4c1.6,0,2.9-0.2,4.1-0.6C428.8,1426.6,429.4,1426,429.4,1425.2z"/>
		<path class="st1" d="M464,1418.7c0,0.4-0.2,1.1-0.5,1.4c-0.5,0.5-1,0.8-1.6,0.8h-9.7c-0.4,0-1.1-0.2-1.4-0.5
			c-0.5-0.5-0.8-1-0.8-1.6V1385c0-0.6,0.2-1.1,0.6-1.5c0.4-0.4,0.9-0.6,1.5-0.6h9.8c0.6,0,1.1,0.2,1.5,0.6c0.4,0.4,0.6,0.9,0.6,1.5
			V1418.7z M464,1435.8c0,0.6-0.2,1.1-0.6,1.5c-0.4,0.4-0.9,0.6-1.5,0.6h-9.8c-0.6,0-1.1-0.2-1.5-0.6c-0.4-0.4-0.6-0.9-0.6-1.5v-7.8
			c0-0.6,0.2-1.1,0.6-1.5c0.4-0.4,0.9-0.6,1.5-0.6h9.8c0.6,0,1.1,0.2,1.5,0.6c0.4,0.4,0.6,0.9,0.6,1.5V1435.8z"/>
		<path class="st1" d="M515.7,1382.9c3.4,0,6.4,0.4,9.1,1.1c2.7,0.8,5,1.9,6.9,3.5s3.3,3.5,4.4,5.8c1,2.3,1.5,5,1.5,8
			c0,3.1-0.5,5.8-1.5,8.1c-1,2.3-2.5,4.2-4.4,5.8c-1.9,1.5-4.2,2.7-6.9,3.5s-5.7,1.2-9.1,1.2H505v15.9c0,0.6-0.2,1.1-0.6,1.5
			c-0.4,0.4-0.9,0.6-1.4,0.6H493c-0.6,0-1-0.2-1.4-0.6c-0.4-0.4-0.6-0.9-0.6-1.5V1385c0-0.6,0.2-1.1,0.6-1.5
			c0.4-0.4,0.9-0.6,1.5-0.6L515.7,1382.9L515.7,1382.9z M506,1406.9h9.3c2.1,0,3.9-0.5,5.3-1.4s2.1-2.5,2.1-4.6
			c0-2.1-0.7-3.7-2.1-4.6c-1.4-0.9-3.2-1.4-5.3-1.4H506V1406.9z"/>
		<path class="st1" d="M540.1,1425.5c0-3.4,1.3-6.2,3.9-8.4c2.6-2.2,6.9-3.8,12.8-4.8l9.1-1.5c0-1.2-0.3-2.2-1-3
			c-0.7-0.8-1.8-1.2-3.5-1.2c-1.2,0-2.1,0.2-2.8,0.5s-1.1,0.6-1.4,0.9c-0.5,0.4-0.9,0.7-1.3,0.8c-0.4,0.1-0.9,0.2-1.5,0.2h-9.9
			c-0.5,0-0.9-0.2-1.3-0.5c-0.3-0.3-0.5-0.7-0.4-1.2c0.1-1.2,0.6-2.4,1.6-3.7c0.9-1.3,2.2-2.5,3.9-3.5c1.6-1.1,3.6-2,5.8-2.7
			c2.3-0.7,4.7-1.1,7.4-1.1c3.2,0,5.9,0.4,8.3,1.2c2.3,0.8,4.3,1.8,5.8,3.2c1.5,1.4,2.7,3,3.4,4.8c0.7,1.9,1.1,3.9,1.1,6.2v23.2
			c0,0.6-0.2,1.1-0.6,1.5c-0.4,0.4-0.9,0.6-1.5,0.6h-9.8c-0.6,0-1.1-0.2-1.5-0.6c-0.4-0.4-0.6-0.9-0.6-1.5v-2.1
			c-1.2,1.5-2.8,2.8-4.6,3.6c-1.8,0.9-4.3,1.3-7.3,1.3c-2.2,0-4.2-0.3-6-0.9c-1.7-0.6-3.2-1.5-4.4-2.5c-1.2-1.1-2.1-2.4-2.7-3.8
			C540.4,1428.9,540.1,1427.3,540.1,1425.5z M557.9,1427.8c1.1,0,2.2-0.2,3.2-0.6c1-0.4,1.8-0.9,2.6-1.6c0.7-0.7,1.3-1.5,1.7-2.4
			c0.4-0.9,0.6-1.9,0.6-2.9l-7.2,1.1c-1.4,0.3-2.5,0.7-3.4,1.3c-0.9,0.6-1.3,1.4-1.3,2.4s0.3,1.7,1,2.1
			C555.8,1427.6,556.7,1427.8,557.9,1427.8z"/>
		<path class="st1" d="M608.9,1443c1.9,0,3.5-0.5,5-1.4c1.4-0.9,2.2-2.3,2.2-4.1v-5.5c0,0-1.5,1.1-2.1,1.7s-1.2,1-2,1.5
			s-1.8,0.8-3,1.1c-1.2,0.3-2.6,0.4-4.3,0.4c-2.3,0-4.6-0.3-6.6-1.1c-2.1-0.7-3.9-1.8-5.5-3.2c-1.6-1.4-2.8-3.3-3.8-5.5
			c-1-2.2-1.5-4.8-1.6-7.7c-0.1-0.8-0.1-1.7-0.1-2.8c0-1.1,0-2,0.1-2.8c0.1-3,0.6-5.6,1.6-7.8s2.2-4,3.8-5.5
			c1.6-1.4,3.4-2.5,5.5-3.2s4.3-1.1,6.6-1.1c1.7,0,3.2,0.2,4.4,0.5c1.2,0.3,2.3,0.7,3.2,1.2c0.9,0.5,1.6,1,2.2,1.5
			c0.6,0.6,1,1.1,1.6,1.5v-1.8c-0.2-0.6,0-1.1,0.4-1.5c0.4-0.4,1.5-0.7,1.5-0.7h9.1c0.5,0,1,0.2,1.4,0.6c0.4,0.4,0.6,0.9,0.6,1.5
			v38.1c0,2.9-0.5,5.5-1.5,7.7c-1,2.2-2.4,4.1-4.2,5.6c-1.8,1.5-3.9,2.6-6.4,3.3c-2.5,0.7-5.2,1.1-8.2,1.1c-3.9,0-7-0.5-9.5-1.5
			c-2.5-1-4.4-2.2-5.8-3.7c-1.4-1.4-2.4-2.9-2.9-4.5c-0.5-1.6-0.8-2.9-0.9-4.1c0-0.6,0.1-1.1,0.6-1.5c0.4-0.4,0.9-0.6,1.4-0.6h9.7
			c1,0,1.8,0.5,2.3,1.6c0.3,0.7,0.9,1.3,1.6,1.8C606,1442.8,607.2,1443,608.9,1443z M601.1,1414.5c-0.1,0.8-0.2,1.4-0.2,1.9
			s0.1,1.1,0.2,1.9c0.2,1.8,0.8,3.3,1.9,4.5c1.1,1.2,2.8,1.8,5.1,1.8c2.1,0,3.8-0.6,4.9-1.8s1.8-2.5,2.1-4c0.3-1.6,0.3-3.2,0-4.9
			c-0.2-1.5-0.9-2.8-2-4c-1.1-1.1-2.8-1.7-4.9-1.7c-2.2,0-3.9,0.6-5.1,1.8C601.9,1411.2,601.3,1412.7,601.1,1414.5z"/>
		<path class="st1" d="M650,1421.9c0,1.1,0.2,2,0.7,2.8c0.4,0.7,1,1.3,1.7,1.7c0.7,0.4,1.4,0.7,2.3,0.9c0.8,0.2,1.6,0.3,2.4,0.3
			c1.6,0,2.8-0.1,3.7-0.4c0.9-0.3,1.7-0.7,2.3-1.2c0.6-0.4,1-0.7,1.2-0.8s0.7-0.2,1.3-0.2h10.1c1.1,0,1.7,0.5,1.7,1.6
			c0,0.6-0.4,1.5-1.2,2.7c-0.8,1.2-2,2.4-3.6,3.6c-1.6,1.2-3.7,2.3-6.3,3.2c-2.6,0.9-5.7,1.4-9.3,1.4c-3.4,0-6.4-0.4-9-1.3
			c-2.6-0.9-4.8-2.2-6.6-3.9c-1.8-1.7-3.1-3.8-4-6.2c-0.9-2.4-1.4-5.2-1.4-8.2c0-2.8,0.4-5.4,1.4-7.8c0.9-2.4,2.3-4.5,4-6.2
			c1.8-1.7,4-3.1,6.6-4.1c2.6-1,5.6-1.5,9-1.5c3.8,0,7,0.6,9.7,1.8c2.7,1.2,4.8,2.7,6.5,4.6c1.7,1.9,2.9,4,3.6,6.4s1.1,4.7,1.1,7v2
			c0,0.5-0.2,1-0.6,1.4c-0.4,0.4-0.9,0.6-1.5,0.6L650,1421.9L650,1421.9z M657.3,1406.6c-2.2,0-3.8,0.7-5,1.9
			c-1.1,1.3-1.8,2.8-2,4.4h14c-0.2-1.6-0.9-3.1-2-4.4C661.2,1407.2,659.5,1406.6,657.3,1406.6z"/>
		<path class="st1" d="M744,1435.9c0,0.5-0.2,1-0.6,1.4c-0.4,0.4-0.9,0.6-1.5,0.6h-9.7c-0.4,0-1.1-0.2-1.4-0.5
			c-0.6-0.5-0.8-1-0.8-1.6v-19.7c0-2.2-0.6-4-1.7-5.4c-1.1-1.3-2.9-2-5.3-2s-4.2,0.7-5.3,2s-1.7,3.2-1.7,5.4v19.6
			c0,0.4-0.2,1.1-0.5,1.5c-0.5,0.5-1,0.8-1.7,0.8h-9.6c-0.4,0-1.1-0.2-1.4-0.5c-0.6-0.5-0.8-1-0.8-1.7V1399c0-0.6,0.2-1.1,0.6-1.5
			c0.4-0.4,0.9-0.6,1.5-0.6h9.7c0.6,0,1.1,0.2,1.5,0.6c0.4,0.4,0.6,0.9,0.6,1.5v4c0.4-0.5,0.9-1,1.6-1.6c0.6-0.5,1.4-1,2.3-1.4
			c0.9-0.4,1.9-0.8,3.1-1c1.2-0.3,2.5-0.4,4.1-0.4c2.5,0,4.8,0.3,6.9,1c2.1,0.7,3.9,1.7,5.4,3.1c1.5,1.4,2.6,3.1,3.5,5.3
			c0.8,2.1,1.3,4.7,1.3,7.6L744,1435.9L744,1435.9z"/>
		<path class="st1" d="M792.9,1414.3c0.1,0.8,0.1,1.8,0.1,3s0,2.2-0.1,3c-0.1,2.5-0.7,4.8-1.7,7c-1,2.2-2.5,4.1-4.3,5.7
			c-1.8,1.6-4,2.9-6.6,3.9s-5.4,1.4-8.6,1.4s-6-0.5-8.6-1.4c-2.6-0.9-4.8-2.2-6.6-3.9s-3.2-3.6-4.3-5.7c-1-2.2-1.6-4.5-1.7-7
			c-0.1-0.8-0.1-1.8-0.1-3s0-2.2,0.1-3c0.1-2.5,0.6-4.8,1.6-7c1-2.2,2.5-4.1,4.3-5.7c1.8-1.6,4.1-2.9,6.6-3.9c2.6-1,5.4-1.4,8.6-1.4
			c3.2,0,6,0.5,8.6,1.4c2.6,1,4.8,2.3,6.6,3.9c1.8,1.6,3.3,3.6,4.3,5.7C792.3,1409.5,792.8,1411.8,792.9,1414.3z M764.5,1419.9
			c0.2,2,0.9,3.5,2.1,4.6s2.9,1.7,5,1.7c2.1,0,3.8-0.6,5-1.7s2-2.7,2.1-4.6c0.1-0.8,0.2-1.7,0.2-2.7s-0.1-1.9-0.2-2.7
			c-0.2-2-0.9-3.5-2.1-4.6s-2.9-1.7-5-1.7c-2.1,0-3.8,0.6-5,1.7s-2,2.7-2.1,4.6c-0.1,0.8-0.2,1.7-0.2,2.7
			C764.4,1418.2,764.4,1419.1,764.5,1419.9z"/>
		<path class="st1" d="M819,1421.9c0,1.3,0.3,2.3,0.8,3c0.6,0.7,1.5,1,2.7,1h5.3c0.6,0,1.1,0.2,1.5,0.6c0.4,0.4,0.6,0.9,0.6,1.5v7.7
			c0,0.4-0.2,1.1-0.5,1.4c-0.5,0.5-1,0.8-1.6,0.8h-7.5c-2.5,0-4.7-0.3-6.7-1c-2-0.7-3.7-1.7-5.2-3c-1.4-1.3-2.5-2.9-3.3-4.8
			c-0.8-1.9-1.2-4-1.2-6.4v-13.8h-5.2c-0.6,0.2-1.1-0.1-1.5-0.5c-0.4-0.4-0.6-0.9-0.3-1.5v-7.9c-0.3-0.6-0.1-1.1,0.3-1.5
			c0.4-0.4,1.5-0.7,1.5-0.7h6.2V1384c0-0.6,0.2-1.1,0.6-1.5c0.4-0.4,0.9-0.6,1.5-0.6h9.8c0.6,0,1.1,0.2,1.5,0.6
			c0.4,0.4,0.6,0.9,0.6,1.5v12.9h8.9c0.6,0,1.1,0.2,1.5,0.6c0.4,0.4,0.6,0.9,0.6,1.5v7.7c0,0.4-0.2,1.1-0.5,1.4
			c-0.5,0.5-1,0.8-1.6,0.8H819L819,1421.9L819,1421.9z"/>
		<path class="st1" d="M871,1396.9h9.9c0.6,0,1.1,0.2,1.5,0.6c0.4,0.4,0.6,0.9,0.6,1.5v7.8c0,0.6-0.2,1.1-0.6,1.5
			c-0.4,0.4-0.9,0.6-1.5,0.6H871v25.9c0,0.6-0.2,1.1-0.6,1.5c-0.4,0.4-0.9,0.6-1.5,0.6h-9.8c-0.6,0-1.1-0.2-1.5-0.6
			c-0.4-0.4-0.6-0.9-0.6-1.5v-25.9h-5c-0.5,0-1-0.2-1.4-0.6c-0.4-0.4-0.6-0.9-0.6-1.5v-7.8c0-0.6,0.2-1.1,0.6-1.5
			c0.4-0.4,0.9-0.6,1.4-0.6h5v-2.1c0-2.4,0.4-4.5,1.3-6.3s2-3.4,3.5-4.7c1.5-1.3,3.2-2.2,5.3-2.9c2-0.7,4.3-1,6.6-1h7.3
			c0.6,0,1,0.2,1.5,0.6c0.4,0.4,0.6,0.9,0.6,1.5v7.8c0,0.6-0.2,1.1-0.6,1.5c-0.4,0.4-0.9,0.6-1.4,0.6h-6.8c-1.2,0-2,0.3-2.5,0.9
			c-0.5,0.6-0.7,1.4-0.7,2.4L871,1396.9L871,1396.9z"/>
		<path class="st1" d="M928.7,1414.3c0.1,0.8,0.1,1.8,0.1,3s0,2.2-0.1,3c-0.1,2.5-0.7,4.8-1.7,7c-1,2.2-2.5,4.1-4.3,5.7
			c-1.8,1.6-4,2.9-6.6,3.9s-5.4,1.4-8.6,1.4s-6-0.5-8.6-1.4c-2.6-0.9-4.8-2.2-6.6-3.9s-3.2-3.6-4.3-5.7c-1-2.2-1.6-4.5-1.7-7
			c-0.1-0.8-0.1-1.8-0.1-3s0-2.2,0.1-3c0.1-2.5,0.6-4.8,1.6-7c1-2.2,2.5-4.1,4.3-5.7c1.8-1.6,4.1-2.9,6.6-3.9c2.6-1,5.4-1.4,8.6-1.4
			c3.2,0,6,0.5,8.6,1.4c2.6,1,4.8,2.3,6.6,3.9c1.8,1.6,3.3,3.6,4.3,5.7C928,1409.5,928.6,1411.8,928.7,1414.3z M900.3,1419.9
			c0.2,2,0.9,3.5,2.1,4.6s2.9,1.7,5,1.7c2.1,0,3.8-0.6,5-1.7s2-2.7,2.1-4.6c0.1-0.8,0.2-1.7,0.2-2.7s-0.1-1.9-0.2-2.7
			c-0.2-2-0.9-3.5-2.1-4.6s-2.9-1.7-5-1.7c-2.1,0-3.8,0.6-5,1.7s-2,2.7-2.1,4.6c-0.1,0.8-0.2,1.7-0.2,2.7
			C900.1,1418.2,900.2,1419.1,900.3,1419.9z"/>
		<path class="st1" d="M935,1398.9c0-0.5,0.2-1,0.6-1.4c0.4-0.4,0.9-0.6,1.5-0.6h9.7c0.6,0,1.1,0.2,1.5,0.6c0.4,0.4,0.6,0.9,0.6,1.5
			v19.7c0,2.2,0.5,4,1.5,5.4s2.7,2,5,2c2.3,0,4-0.7,5-2c1-1.3,1.5-3.1,1.5-5.4V1399c0-0.6,0.2-1.1,0.6-1.5c0.4-0.4,0.9-0.6,1.5-0.6
			h9.8c0.6,0,1,0.2,1.5,0.6c0.4,0.4,0.6,0.9,0.6,1.5v36.8c0,0.6-0.2,1.1-0.6,1.5c-0.4,0.4-0.9,0.6-1.5,0.6h-8.9
			c-0.6,0-1-0.2-1.5-0.6c-0.4-0.4-0.6-0.9-0.6-1.5v-4c-0.4,0.5-0.9,1.1-1.5,1.6c-0.6,0.5-1.4,1-2.3,1.4c-0.9,0.4-1.9,0.8-3.1,1
			c-1.2,0.3-2.6,0.4-4.2,0.4c-5.1,0-9.2-1.4-12.3-4.1c-3-2.7-4.6-7-4.6-12.8L935,1398.9L935,1398.9z"/>
		<path class="st1" d="M1027,1435.9c0,0.5-0.2,1-0.6,1.4c-0.4,0.4-0.9,0.6-1.5,0.6h-9.7c-0.4,0-1.1-0.2-1.4-0.5
			c-0.6-0.5-0.8-1-0.8-1.6v-19.7c0-2.2-0.6-4-1.7-5.4c-1.1-1.3-2.9-2-5.3-2s-4.2,0.7-5.3,2s-1.7,3.2-1.7,5.4v19.6
			c0,0.4-0.2,1.1-0.5,1.5c-0.5,0.5-1,0.8-1.7,0.8h-9.6c-0.4,0-1.1-0.2-1.4-0.5c-0.6-0.5-0.8-1-0.8-1.7V1399c0-0.6,0.2-1.1,0.6-1.5
			c0.4-0.4,0.9-0.6,1.5-0.6h9.7c0.6,0,1.1,0.2,1.5,0.6c0.4,0.4,0.6,0.9,0.6,1.5v4c0.4-0.5,0.9-1,1.6-1.6c0.6-0.5,1.4-1,2.3-1.4
			c0.9-0.4,1.9-0.8,3.1-1c1.2-0.3,2.5-0.4,4.1-0.4c2.5,0,4.8,0.3,6.9,1c2.1,0.7,3.9,1.7,5.4,3.1c1.5,1.4,2.6,3.1,3.5,5.3
			c0.8,2.1,1.3,4.7,1.3,7.6L1027,1435.9L1027,1435.9z"/>
		<path class="st1" d="M1051.6,1396.2c1.5,0,2.8,0.2,4,0.5c1.1,0.3,2.1,0.7,3,1.2c0.8,0.5,1.5,1,2.1,1.5c0.6,0.6,2.4,1.5,2.4,1.5
			V1384c0-0.6,0.2-1.1,0.6-1.5c0.4-0.4,0.8-0.6,1.4-0.6h9.1c0.5,0,1,0.2,1.4,0.6c0.4,0.4,0.6,0.9,0.6,1.5v50.8
			c0,0.6-0.2,1.1-0.6,1.5c-0.4,0.4-0.8,0.6-1.4,0.6h-9.6c0,0-1.1,0.4-1.5,0c-0.4-0.4-0.6-0.9-1-1.5v-1.8c-0.1,0.6-0.6,1.1-1.1,1.7
			s-1.2,1-2,1.5s-1.8,0.8-3,1.1c-1.2,0.3-2.6,0.4-4.3,0.4c-2.3,0-4.6-0.3-6.6-1.1c-2.1-0.7-3.9-1.8-5.5-3.3
			c-1.6-1.5-2.8-3.3-3.8-5.6c-1-2.2-1.5-4.9-1.6-7.9c-0.1-0.8-0.1-1.8-0.1-3.2c0-1.3,0-2.4,0.1-3.2c0.1-3.1,0.6-5.7,1.6-7.9
			s2.2-4.1,3.8-5.6c1.6-1.5,3.4-2.6,5.5-3.3S1049.2,1396.2,1051.6,1396.2z M1048.1,1415.1c-0.2,1.5-0.2,2.9,0,4.4
			c0.2,1.8,0.8,3.4,1.8,4.8s2.8,2,5.2,2c1.1,0,2.1-0.2,3-0.6c0.8-0.4,1.5-0.8,2.1-1.4c0.6-0.6,1-1.3,1.3-2c0.3-0.7,0.5-1.5,0.6-2.3
			s0.2-1.7,0.2-2.7s-0.1-1.9-0.2-2.7c-0.1-0.8-0.3-1.5-0.6-2.3c-0.3-0.7-0.7-1.4-1.3-2s-1.2-1.1-2.1-1.4s-1.8-0.6-3-0.6
			c-2.4,0-4.2,0.7-5.2,2C1048.8,1411.7,1048.2,1413.3,1048.1,1415.1z"/>
	</g>
	<path class="st1" d="M618.6,730.2c0,6,9.8-5.6,7-12.5C622.8,710.7,618.6,721.8,618.6,730.2z"/>
	<path class="st1" d="M483.3,961.2c0,6,9.8-5.6,7-12.5C487.5,941.7,483.3,952.9,483.3,961.2z"/>
	<path class="st1" d="M691.7,666.1c-4.2-2.8-13.2,1.1-2.8,6.1c10.4,5,20.9-2.3,16.7-3.5S691.7,666.1,691.7,666.1z"/>
	<path class="st1" d="M851.2,1013.8c-4.2-2.8-13.2,1.1-2.8,6.1c10.4,5,20.9-2.3,16.7-3.5C860.9,1015.2,851.2,1013.8,851.2,1013.8z"
		/>
	<path class="st1" d="M679.9,605.6c0,0-11.1,2.8-4.2,6.3C682.7,615.3,679.9,605.6,679.9,605.6z"/>
	<path class="st1" d="M791,1132.3c0,0-11.1,2.8-4.2,6.3C793.8,1142,791,1132.3,791,1132.3z"/>
	<path class="st1" d="M695.9,825.6c-4.9,3.1-7,7.3-2.8,7s7.3-1.4,6.6-3.5C699,827,695.9,825.6,695.9,825.6z"/>
</g>
</svg>
